<?xml version="1.0" encoding="UTF-8" ?>
<!DOCTYPE svg PUBLIC "-//W3C//DTD SVG 1.1//EN" "http://www.w3.org/Graphics/SVG/1.1/DTD/svg11.dtd">
<svg width="116pt" height="116pt" viewBox="0 0 116 116" version="1.1" xmlns="http://www.w3.org/2000/svg">
<g id="#f7f7f7ff">
<path fill="#f7f7f7" opacity="1.00" d=" M 14.18 7.21 C 15.77 6.97 17.39 6.99 19.00 6.98 C 46.05 7.06 73.10 6.92 100.15 7.05 C 105.29 6.99 109.33 11.95 108.98 16.94 C 109.03 43.98 108.97 71.03 109.01 98.08 C 109.14 101.47 108.18 105.25 105.18 107.23 C 103.15 108.81 100.47 108.97 98.00 109.01 C 70.97 108.97 43.93 109.04 16.90 108.98 C 11.91 109.32 6.98 105.24 7.04 100.11 C 6.94 72.41 7.03 44.70 7.00 17.00 C 6.59 12.54 9.82 8.15 14.18 7.21 M 46.08 23.94 C 48.59 24.81 51.34 24.29 53.95 24.40 C 53.97 24.72 53.99 25.37 54.00 25.69 C 43.33 25.99 32.65 25.73 21.98 25.96 C 19.57 25.77 19.11 29.84 21.41 30.34 C 23.48 30.66 25.58 30.56 27.66 30.62 C 31.68 32.15 35.66 33.79 39.64 35.42 C 40.58 35.83 41.54 35.93 42.54 35.69 C 42.72 39.41 42.05 43.25 42.95 46.89 C 46.04 48.58 50.13 48.41 53.51 47.64 C 54.58 49.64 54.01 51.90 53.93 54.04 C 54.30 65.67 54.39 77.35 53.99 88.98 C 54.40 91.86 54.37 94.83 53.39 97.60 C 51.72 97.77 49.50 97.18 49.69 95.07 C 49.47 80.85 49.88 66.61 49.50 52.40 C 49.23 49.65 44.87 50.59 44.97 53.00 C 44.76 67.01 44.90 81.02 44.90 95.03 C 44.61 98.95 48.07 102.57 52.01 102.39 C 55.86 102.46 59.14 98.90 58.91 95.09 C 58.99 79.32 58.91 63.54 58.95 47.77 C 61.16 47.93 63.59 47.40 65.63 48.44 C 67.87 49.71 67.10 53.52 69.80 54.12 C 75.55 55.91 81.23 57.95 87.06 59.46 C 89.75 58.51 90.78 55.45 92.20 53.21 C 96.32 45.34 97.36 35.77 94.62 27.28 C 94.18 25.70 92.25 25.93 90.99 25.85 C 80.33 25.87 69.67 25.87 59.00 25.86 C 58.75 23.90 59.50 21.47 57.94 19.91 C 54.30 19.33 50.56 19.52 46.89 19.72 C 44.72 19.63 44.10 23.14 46.08 23.94 Z" />
<path fill="#f7f7f7" opacity="1.00" d=" M 81.51 30.50 C 84.64 30.50 87.77 30.53 90.91 30.54 C 92.43 38.77 90.83 47.44 86.15 54.41 C 83.61 53.61 81.08 52.81 78.54 52.01 C 81.71 45.31 82.71 37.81 81.51 30.50 Z" />
</g>
<g id="#7c1919ff">
<path fill="#7c1919" opacity="1.00" d=" M 15.35 0.00 L 101.46 0.00 C 109.24 0.80 115.71 7.55 116.00 15.40 L 116.00 101.48 C 115.19 109.03 108.83 115.35 101.24 116.00 L 15.33 116.00 C 7.42 115.67 0.62 109.06 0.00 101.19 L 0.00 15.35 C 0.31 7.25 7.25 0.31 15.35 0.00 M 14.18 7.21 C 9.82 8.15 6.59 12.54 7.00 17.00 C 7.03 44.70 6.94 72.41 7.04 100.11 C 6.98 105.24 11.91 109.32 16.90 108.98 C 43.93 109.04 70.97 108.97 98.00 109.01 C 100.47 108.97 103.15 108.81 105.18 107.23 C 108.18 105.25 109.14 101.47 109.01 98.08 C 108.97 71.03 109.03 43.98 108.98 16.94 C 109.33 11.95 105.29 6.99 100.15 7.05 C 73.10 6.92 46.05 7.06 19.00 6.98 C 17.39 6.99 15.77 6.97 14.18 7.21 Z" />
</g>
<g id="#444b54ff">
<path fill="#444b54" opacity="1.00" d=" M 46.08 23.94 C 44.10 23.14 44.72 19.63 46.89 19.72 C 50.56 19.52 54.30 19.33 57.94 19.91 C 59.50 21.47 58.75 23.90 59.00 25.86 C 69.67 25.87 80.33 25.87 90.99 25.85 C 92.25 25.93 94.18 25.70 94.62 27.28 C 97.36 35.77 96.32 45.34 92.20 53.21 C 90.78 55.45 89.75 58.51 87.06 59.46 C 81.23 57.95 75.55 55.91 69.80 54.12 C 67.10 53.52 67.87 49.71 65.63 48.44 C 63.59 47.40 61.16 47.93 58.95 47.77 C 58.91 63.54 58.99 79.32 58.91 95.09 C 59.14 98.90 55.86 102.46 52.01 102.39 C 48.07 102.57 44.61 98.95 44.90 95.03 C 44.90 81.02 44.76 67.01 44.97 53.00 C 44.87 50.59 49.23 49.65 49.50 52.40 C 49.88 66.61 49.47 80.85 49.69 95.07 C 49.50 97.18 51.72 97.77 53.39 97.60 C 54.37 94.83 54.40 91.86 53.99 88.98 C 54.39 77.35 54.30 65.67 53.93 54.04 C 54.01 51.90 54.58 49.64 53.51 47.64 C 50.13 48.41 46.04 48.58 42.95 46.89 C 42.05 43.25 42.72 39.41 42.54 35.69 C 43.97 35.52 45.78 34.80 46.83 36.23 C 47.29 38.46 47.20 40.75 47.28 43.01 C 53.48 43.25 59.77 42.17 65.89 43.46 C 69.18 44.13 70.92 47.21 72.35 49.93 C 74.40 50.65 76.47 51.34 78.54 52.01 C 81.08 52.81 83.61 53.61 86.15 54.41 C 90.83 47.44 92.43 38.77 90.91 30.54 C 87.77 30.53 84.64 30.50 81.51 30.50 C 63.56 30.45 45.61 30.69 27.66 30.62 C 25.58 30.56 23.48 30.66 21.41 30.34 C 19.11 29.84 19.57 25.77 21.98 25.96 C 32.65 25.73 43.33 25.99 54.00 25.69 C 53.99 25.37 53.97 24.72 53.95 24.40 C 51.34 24.29 48.59 24.81 46.08 23.94 Z" />
</g>
<g id="#f86678ff">
<path fill="#f86678" opacity="1.00" d=" M 27.66 30.62 C 45.61 30.69 63.56 30.45 81.51 30.50 C 82.71 37.81 81.71 45.31 78.54 52.01 C 76.47 51.34 74.40 50.65 72.35 49.93 C 70.92 47.21 69.18 44.13 65.89 43.46 C 59.77 42.17 53.48 43.25 47.28 43.01 C 47.20 40.75 47.29 38.46 46.83 36.23 C 45.78 34.80 43.97 35.52 42.54 35.69 C 41.54 35.93 40.58 35.83 39.64 35.42 C 35.66 33.79 31.68 32.15 27.66 30.62 Z" />
</g>
</svg>
